name C:\Users\u0101727\Documents\MyRepositories\paper-ad\predictivesimulations_2d/Results/PredSim_2D/IK_c7.mot
datacolumns 11
datarows 51
range 1.27593862 1.75561480
endheader
time	pelvis_tilt	pelvis_tx	pelvis_ty	hip_flexion_l	hip_flexion_r	knee_angle_l	knee_angle_r	ankle_angle_l	ankle_angle_r	lumbar_extension	
          1.27593862	        -15.10685757	          1.69367705	          0.90064053	         33.19586278	         10.37353404	        -37.56584691	         -7.29405284	         15.70297393	         11.30384598	          9.42625457	
          1.28553215	        -15.10616494	          1.70566465	          0.89978217	         34.16436919	          9.59775756	        -36.09304365	         -7.34165883	         15.98880407	         11.31413025	          9.38641066	
          1.29512567	        -15.10655094	          1.71770776	          0.89886582	         35.07171954	          8.83963538	        -34.50359111	         -7.42499278	         16.19371811	         11.31218335	          9.34981944	
          1.30471919	        -15.10840809	          1.72981285	          0.89789035	         35.91442184	          8.09811752	        -32.80522261	         -7.54299908	         16.32682906	         11.30160989	          9.31679185	
          1.31431272	        -15.11205894	          1.74198806	          0.89685460	         36.68790609	          7.37286212	        -31.00940278	         -7.69598108	         16.39691664	         11.28323621	          9.28771284	
          1.32390624	        -15.11757069	          1.75424536	          0.89576124	         37.38548723	          6.66476916	        -29.14233749	         -7.88761285	         16.41212676	         11.25542992	          9.26317004	
          1.33349976	        -15.12497056	          1.76660301	          0.89462268	         37.99424436	          5.97585652	        -27.23827113	         -8.12411426	         16.37975296	         11.21214757	          9.24446633	
          1.34309329	        -15.13428059	          1.77908251	          0.89346065	         38.49840511	          5.30927976	        -25.32938500	         -8.41260090	         16.30619919	         11.14098097	          9.23332262	
          1.35268681	        -15.14518215	          1.79170265	          0.89229766	         38.88853625	          4.66945889	        -23.44353515	         -8.76156284	         16.19686051	         11.02564343	          9.23092474	
          1.36228034	        -15.15688091	          1.80447800	          0.89115167	         39.16449160	          4.06164910	        -21.60255031	         -9.18083631	         16.05586530	         10.84959485	          9.23767863	
          1.37187386	        -15.16816559	          1.81742142	          0.89003696	         39.33316213	          3.49113040	        -19.82801808	         -9.68071982	         15.88581399	         10.59855149	          9.25351130	
          1.38146738	        -15.17781425	          1.83054675	          0.88896569	         39.40177421	          2.96279596	        -18.13479150	        -10.27091238	         15.68790114	         10.25967421	          9.27851221	
          1.39106091	        -15.18468207	          1.84386848	          0.88794705	         39.37714795	          2.48107718	        -16.53466101	        -10.95998116	         15.46202461	          9.82081574	          9.31292066	
          1.40065443	        -15.18751341	          1.85740080	          0.88698629	         39.26688082	          2.05057866	        -15.04468266	        -11.75690643	         15.20690692	          9.27112591	          9.35687651	
          1.41024795	        -15.18504483	          1.87115811	          0.88608448	         39.07601908	          1.67681390	        -13.67941897	        -12.67196991	         14.92053202	          8.59963920	          9.41067264	
          1.41984148	        -15.17587180	          1.88515402	          0.88523734	         38.80933635	          1.36569598	        -12.45873587	        -13.71610368	         14.60001448	          7.79592251	          9.47455995	
          1.42943500	        -15.15843936	          1.89940026	          0.88443371	         38.47217754	          1.12287402	        -11.41140224	        -14.89949836	         14.24155764	          6.85247279	          9.54869111	
          1.43902852	        -15.13130761	          1.91390794	          0.88365449	         38.06486383	          0.95313744	        -10.56826355	        -16.23144991	         13.84080847	          5.76931769	          9.63365814	
          1.44862205	        -15.09328254	          1.92868531	          0.88286817	         37.58034866	          0.85942356	         -9.96297989	        -17.72496139	         13.39277875	          4.56880422	          9.73051959	
          1.45821557	        -15.04420810	          1.94372611	          0.88203090	         37.00063172	          0.84445773	         -9.64371353	        -19.38597552	         12.89265892	          3.26446141	          9.84041964	
          1.46780909	        -14.98664396	          1.95901332	          0.88116610	         36.25764001	          0.91546953	         -9.73103543	        -21.21136567	         12.33838926	          1.83631501	          9.96733645	
          1.47740262	        -14.92880069	          1.97436109	          0.88040065	         35.39453734	          1.07709002	        -10.04526664	        -23.18255419	         11.76930851	          0.36975207	         10.10184271	
          1.48699614	        -14.88164662	          1.98942873	          0.87996396	         34.53650958	          1.35617143	        -10.32544760	        -25.20714760	         11.21933760	         -0.91373188	         10.22068989	
          1.49658966	        -14.85374417	          2.00396920	          0.88011772	         33.72080839	          1.78097240	        -10.58372441	        -27.14495411	         10.68834805	         -1.91612670	         10.30996763	
          1.50618319	        -14.84743987	          2.01791952	          0.88101772	         32.94989878	          2.34739306	        -10.81497825	        -28.93329106	         10.19099589	         -2.66676560	         10.36854054	
          1.51577671	        -14.85804538	          2.03136290	          0.88262324	         32.20525527	          3.03866290	        -11.00721446	        -30.59286017	          9.74356244	         -3.17508692	         10.40254806	
          1.52537023	        -14.87896577	          2.04442354	          0.88472458	         31.46576015	          3.83424840	        -11.15151040	        -32.15279253	          9.35753432	         -3.45385583	         10.41901110	
          1.53496376	        -14.90483780	          2.05720891	          0.88708917	         30.71461186	          4.71859509	        -11.24105433	        -33.63068958	          9.03918065	         -3.51866589	         10.42324574	
          1.54455728	        -14.93222451	          2.06979325	          0.88953433	         29.94236732	          5.67967732	        -11.27392900	        -35.03501185	          8.79010936	         -3.38454930	         10.41844883	
          1.55415080	        -14.95922975	          2.08222353	          0.89193643	         29.14449178	          6.70848166	        -11.25055934	        -36.36706899	          8.60928451	         -3.06778655	         10.40637475	
          1.56374433	        -14.98489267	          2.09452981	          0.89421624	         28.31943879	          7.79760576	        -11.17294851	        -37.62376747	          8.49405742	         -2.58509881	         10.38803366	
          1.57333785	        -15.00872531	          2.10673240	          0.89632337	         27.46757531	          8.94087448	        -11.04456416	        -38.80021482	          8.44069579	         -1.95335494	         10.36404224	
          1.58293138	        -15.03046064	          2.11884637	          0.89822539	         26.59055038	         10.13274023	        -10.87024423	        -39.89031345	          8.44465127	         -1.18951876	         10.33485177	
          1.59252490	        -15.04992648	          2.13088414	          0.89990131	         25.69095990	         11.36783530	        -10.65603113	        -40.88730508	          8.50076557	         -0.31077167	         10.30086926	
          1.60211842	        -15.06700033	          2.14285662	          0.90133851	         24.77210590	         12.64074808	        -10.40893609	        -41.78398761	          8.60346081	          0.66549671	         10.26251093	
          1.61171195	        -15.08159522	          2.15477327	          0.90253209	         23.83796981	         13.94611544	        -10.13696987	        -42.57275953	          8.74692043	          1.72172849	         10.22016782	
          1.62130547	        -15.09369442	          2.16664172	          0.90348532	         22.89299800	         15.27891394	         -9.84798233	        -43.24549317	          8.92527527	          2.84026261	         10.17415819	
          1.63089899	        -15.10342172	          2.17846926	          0.90420880	         21.94108717	         16.63318621	         -9.54901277	        -43.79464040	          9.13205703	          4.00329295	         10.12495699	
          1.64049252	        -15.11094073	          2.19026217	          0.90471948	         20.98639783	         18.00307695	         -9.24762796	        -44.21252163	          9.35960008	          5.19296782	         10.07299741	
          1.65008604	        -15.11639313	          2.20202594	          0.90503816	         20.03350562	         19.38313431	         -8.95165706	        -44.49128060	          9.59985256	          6.39146077	         10.01861710	
          1.65967956	        -15.11992489	          2.21376658	          0.90518622	         19.08719655	         20.76683935	         -8.66945381	        -44.62401943	          9.84485891	          7.58096673	          9.96219899	
          1.66927309	        -15.12175583	          2.22549116	          0.90518394	         18.15071319	         22.14727133	         -8.40666872	        -44.60512119	         10.08726972	          8.74381296	          9.90427602	
          1.67886661	        -15.12220240	          2.23720797	          0.90504945	         17.22488821	         23.51757201	         -8.16460020	        -44.43046841	         10.32044245	          9.86263858	          9.84558484	
          1.68846013	        -15.12154727	          2.24892581	          0.90479826	         16.31112671	         24.86981502	         -7.94605522	        -44.09810291	         10.53759947	         10.92070790	          9.78686424	
          1.69805366	        -15.12003487	          2.26065286	          0.90444349	         15.41157715	         26.19605476	         -7.75463996	        -43.60708623	         10.73267423	         11.90257963	          9.72873243	
          1.70764718	        -15.11790699	          2.27239819	          0.90399584	         14.52780365	         27.48749011	         -7.59336997	        -42.96042732	         10.90104550	         12.79485259	          9.67192415	
          1.71724070	        -15.11542255	          2.28417025	          0.90346441	         13.66074424	         28.73610992	         -7.46428653	        -42.16264982	         11.03976123	         13.58729019	          9.61713110	
          1.72683423	        -15.11284489	          2.29597563	          0.90285727	         12.81128038	         29.93570674	         -7.36849724	        -41.21812117	         11.14767671	         14.27380431	          9.56483889	
          1.73642775	        -15.11041237	          2.30782068	          0.90218094	         11.98011672	         31.08055508	         -7.30767884	        -40.13358199	         11.22551010	         14.85279491	          9.51549065	
          1.74602127	        -15.10834614	          2.31970972	          0.90144077	         11.16757162	         32.16772601	         -7.28273169	        -38.91449963	         11.27607938	         15.32709173	          9.46927414	
          1.75561480	        -15.10685757	          2.33164636	          0.90064053	         10.37353404	         33.19586278	         -7.29405284	        -37.56584691	         11.30384598	         15.70297393	          9.42625457	
